<svg preserveAspectRatio="none" overflow="visible" style="display: block;" width="16.25" height="12.0833" viewBox="0 0 16.25 12.0833" fill="none" xmlns="http://www.w3.org/2000/svg">
<path id="Vector" d="M9.79199 7.50024C11.7255 7.50024 16.2498 7.50046 16.25 11.4583C16.2478 11.6233 16.1811 11.781 16.0645 11.8977C15.9477 12.0144 15.7901 12.0811 15.625 12.0833C15.4599 12.0811 15.3023 12.0144 15.1855 11.8977C15.0689 11.781 15.0022 11.6233 15 11.4583C14.9999 9.83347 14.1164 8.7503 9.79199 8.75024C5.46728 8.75024 4.58313 9.83343 4.58301 11.4583C4.58301 11.624 4.5176 11.7834 4.40039 11.9006C4.28318 12.0178 4.12377 12.0833 3.95801 12.0833C3.79244 12.0832 3.63372 12.0177 3.5166 11.9006C3.39939 11.7834 3.33301 11.624 3.33301 11.4583C3.33326 7.50024 7.85871 7.50024 9.79199 7.50024ZM3.54199 7.08325C3.70764 7.08334 3.86626 7.14971 3.9834 7.26684C4.10053 7.38398 4.16691 7.54261 4.16699 7.70825C4.16699 7.87401 4.10061 8.03342 3.9834 8.15063C3.86628 8.26766 3.70756 8.33316 3.54199 8.33325C1.58377 8.33325 1.25004 8.9585 1.25 10.8333C1.24784 10.9983 1.1811 11.156 1.06445 11.2727C0.947708 11.3894 0.790088 11.4561 0.625 11.4583C0.459912 11.4561 0.302292 11.3894 0.185547 11.2727C0.0689021 11.156 0.0021573 10.9983 0 10.8333C5.78849e-05 8.58343 0.600467 7.08325 3.54199 7.08325ZM5.27539 1.92505C5.36008 1.92874 5.44317 1.94977 5.51953 1.98657C5.59615 2.02358 5.66499 2.07654 5.7207 2.14087C5.77621 2.20502 5.81808 2.27974 5.84375 2.36059C5.86944 2.44172 5.87864 2.52788 5.87012 2.61255C5.86157 2.69712 5.83525 2.77946 5.79395 2.85376C5.75263 2.92791 5.69713 2.99336 5.62988 3.04516C5.56247 3.09709 5.48481 3.13452 5.40234 3.15552C5.32004 3.17646 5.23427 3.18051 5.15039 3.16723C4.98772 3.15101 4.82305 3.16739 4.66699 3.21606C4.51093 3.26474 4.36581 3.34461 4.24121 3.45044C4.11481 3.55247 4.0098 3.6786 3.93262 3.82153C3.85539 3.96455 3.80796 4.12169 3.79199 4.28345C3.77477 4.44721 3.78955 4.61304 3.83691 4.77075C3.88429 4.92838 3.96282 5.07528 4.06738 5.20239C4.17209 5.32959 4.30154 5.4351 4.44727 5.51196C4.59297 5.58879 4.75292 5.63606 4.91699 5.65063C5.18806 5.67374 5.45943 5.60917 5.69141 5.46704C5.83278 5.37979 6.00337 5.35169 6.16504 5.38989C6.32673 5.42816 6.4664 5.52978 6.55371 5.67114C6.64101 5.81259 6.66915 5.98302 6.63086 6.14477C6.59255 6.30648 6.49103 6.44617 6.34961 6.53345C5.96323 6.77982 5.51674 6.91534 5.05859 6.92505H4.79199C4.12895 6.86095 3.51825 6.53589 3.09473 6.02173C2.67139 5.50766 2.4692 4.8467 2.5332 4.18384C2.5973 3.5208 2.92236 2.91009 3.43652 2.48657C3.95068 2.06309 4.61238 1.86096 5.27539 1.92505ZM9.18164 0.0598129C9.78781 -0.060761 10.4163 0.00202403 10.9873 0.238524C11.5582 0.475004 12.0463 0.875149 12.3896 1.38891C12.733 1.90282 12.917 2.50718 12.917 3.12524C12.917 3.95404 12.587 4.74915 12.001 5.3352C11.415 5.92097 10.6205 6.25016 9.79199 6.25024C9.17402 6.25024 8.56952 6.06715 8.05566 5.72388C7.54184 5.38055 7.14083 4.89244 6.9043 4.32153C6.66781 3.75061 6.60606 3.12197 6.72656 2.51587C6.84714 1.90968 7.14499 1.35232 7.58203 0.915282C8.01898 0.478395 8.57563 0.180411 9.18164 0.0598129ZM9.79199 1.25024C9.42115 1.25024 9.05834 1.36062 8.75 1.56665C8.44182 1.77262 8.20147 2.06504 8.05957 2.40747C7.91766 2.75008 7.88078 3.12774 7.95312 3.49145C8.02553 3.85498 8.20371 4.18931 8.46582 4.45141C8.72799 4.71352 9.06218 4.89176 9.42578 4.96411C9.78935 5.03643 10.1663 4.99944 10.5088 4.85766C10.8513 4.71579 11.1446 4.47546 11.3506 4.16723C11.5566 3.85889 11.667 3.49608 11.667 3.12524C11.667 2.62796 11.4688 2.1507 11.1172 1.79907C10.7657 1.44772 10.289 1.25033 9.79199 1.25024Z" fill="#37404C"/>
</svg>
